<svg width="16" height="16" viewBox="0 0 16 16" fill="none" xmlns="http://www.w3.org/2000/svg">
<rect width="16" height="16" rx="8" fill="white"/>
<path d="M7.99996 8.00016C8.22913 8.00016 8.42531 7.91857 8.5885 7.75537C8.7517 7.59218 8.83329 7.396 8.83329 7.16683C8.83329 6.93766 8.7517 6.74148 8.5885 6.57829C8.42531 6.41509 8.22913 6.3335 7.99996 6.3335C7.77079 6.3335 7.57461 6.41509 7.41142 6.57829C7.24822 6.74148 7.16663 6.93766 7.16663 7.16683C7.16663 7.396 7.24822 7.59218 7.41142 7.75537C7.57461 7.91857 7.77079 8.00016 7.99996 8.00016ZM7.99996 11.0627C8.84718 10.2849 9.47565 9.57829 9.88538 8.94287C10.2951 8.30746 10.5 7.74322 10.5 7.25016C10.5 6.49322 10.2586 5.87343 9.776 5.39079C9.29336 4.90815 8.70135 4.66683 7.99996 4.66683C7.29857 4.66683 6.70656 4.90815 6.22392 5.39079C5.74128 5.87343 5.49996 6.49322 5.49996 7.25016C5.49996 7.74322 5.70482 8.30746 6.11454 8.94287C6.52426 9.57829 7.15274 10.2849 7.99996 11.0627ZM7.99996 12.1668C6.8819 11.2154 6.04683 10.3318 5.49475 9.51579C4.94267 8.69982 4.66663 7.94461 4.66663 7.25016C4.66663 6.2085 5.0017 5.37864 5.67183 4.76058C6.34197 4.14252 7.11801 3.8335 7.99996 3.8335C8.8819 3.8335 9.65795 4.14252 10.3281 4.76058C10.9982 5.37864 11.3333 6.2085 11.3333 7.25016C11.3333 7.94461 11.0573 8.69982 10.5052 9.51579C9.95308 10.3318 9.11801 11.2154 7.99996 12.1668Z" fill="#D21E6A"/>
</svg>
